<svg xmlns="http://www.w3.org/2000/svg" viewBox="0 0 182.257 60" class="font"><defs><linearGradient gradientTransform="rotate(25)" id="a" x1="0%" y1="0%" x2="100%" y2="0%"><stop offset="0%" style="stop-color:#792300;stop-opacity:1"/><stop offset="100%" style="stop-color:#f37000;stop-opacity:1"/></linearGradient></defs><path d="M1.72 5.26c.51 0 .92-.4.92-.9s-.41-.9-.92-.9c-.49 0-.9.4-.9.9s.41.9.9.9Zm-.67 7.89h1.39V6.53H1.05Zm8.53-6.62-.19.94c-.51-.67-1.28-1.11-2.3-1.11C5.37 6.36 4 7.67 4 9.81c0 2.15 1.37 3.46 3.09 3.46.96 0 1.72-.38 2.23-1.01v.17c0 1.7-.51 2.59-1.91 2.59-.37 0-.76-.07-1.11-.23l-.32 1.19c.44.15.98.24 1.5.24 2.16 0 3.25-1.27 3.25-3.68V6.53Zm-2.16 5.54c-1.19 0-1.98-.96-1.98-2.26 0-1.28.79-2.27 1.98-2.27 1.24 0 2.04.99 2.04 2.27 0 1.3-.8 2.26-2.04 2.26Zm8.52-5.71c-.93 0-1.63.39-2.04.96l-.18-.79h-1.24v6.62h1.42V9.11c.11-1.16.9-1.54 1.65-1.54 1.02 0 1.45.73 1.45 1.81v3.77h1.42V9.06c0-2.06-1.33-2.7-2.48-2.7Zm5-1.1c.51 0 .92-.4.92-.9s-.41-.9-.92-.9c-.49 0-.9.4-.9.9s.41.9.9.9Zm-.67 7.89h1.39V6.53h-1.39Zm6.46-6.62h-1.41V4.64h-1.4v1.89h-.88v1.14h.88v5.48h1.41l-.01-5.48h1.41ZM34.1 9.7c0-1.97-1.33-3.34-3.26-3.34-1.98 0-3.41 1.53-3.41 3.48 0 1.96 1.42 3.47 3.59 3.47 1.14 0 2.1-.39 2.7-1.06l-.98-.79c-.42.48-.99.73-1.74.73-1.24 0-1.98-.86-2.08-2.04h5.18Zm-3.26-2.2c1.04 0 1.71.62 1.86 1.67h-3.72c.2-1 .89-1.67 1.86-1.67Zm7.75-1.14c-.79 0-1.31.38-1.69 1.05l-.18-.88H35.5v6.62h1.41V9.7c0-1.08.57-2.04 1.6-2.04.24 0 .46.04.65.13l.42-1.21c-.18-.11-.55-.22-.99-.22Z" fill="url(#a)" transform="matrix(4.7022 0 0 4.7022 -3.856 -16.27)"/></svg>