<svg width="387" height="150" fill="none" xmlns="http://www.w3.org/2000/svg">
  <g clip-path="url(#a)">
    <path d="M20.452 31.928c4.79 0 8.64-3.762 8.64-8.464S25.242 15 20.452 15C15.85 15 12 18.762 12 23.464s3.85 8.464 8.452 8.464Zm-6.292 74.201h13.054V43.871H14.16v62.258Zm80.106-62.258-1.784 8.84c-4.79-6.3-12.02-10.438-21.6-10.438-16.152 0-29.018 12.32-29.018 32.445 0 20.22 12.866 32.539 29.018 32.539 9.016 0 16.153-3.574 20.943-9.498v1.598c0 15.988-4.79 24.358-17.938 24.358-3.474 0-7.137-.659-10.424-2.163l-3.005 11.191C64.59 134.154 69.662 135 74.545 135c20.285 0 30.521-11.944 30.521-34.608v-56.52h-10.8Zm-20.285 52.1c-11.175 0-18.594-9.027-18.594-21.253 0-12.038 7.419-21.348 18.594-21.348 11.645 0 19.158 9.31 19.158 21.348 0 12.226-7.513 21.254-19.158 21.254Zm80.013-53.698c-8.734 0-15.308 3.667-19.158 9.028l-1.69-7.43h-11.645v62.258h13.335V68.135c1.033-10.91 8.452-14.483 15.495-14.483 9.579 0 13.617 6.865 13.617 17.022v35.455h13.336V67.665c0-19.374-12.49-25.392-23.29-25.392Zm46.955-10.345c4.79 0 8.64-3.762 8.64-8.464S205.739 15 200.949 15c-4.601 0-8.452 3.762-8.452 8.464s3.851 8.464 8.452 8.464Zm-6.292 74.201h13.054V43.871h-13.054v62.258Zm60.667-62.258h-13.241V26.097h-13.148v17.774h-8.264v10.721h8.264v51.537h13.241l-.093-51.537h13.241v-10.72Zm69.213 29.812c0-18.526-12.491-31.41-30.615-31.41-18.595 0-32.024 14.388-32.024 32.727 0 18.433 13.335 32.633 33.714 32.633 10.706 0 19.721-3.667 25.356-9.968l-9.203-7.43c-3.945 4.514-9.298 6.865-16.341 6.865-11.645 0-18.594-8.087-19.533-19.185h48.646v-4.232Zm-30.615-20.69c9.766 0 16.058 5.831 17.467 15.706h-34.935c1.878-9.404 8.358-15.705 17.468-15.705Zm72.781-10.72c-7.419 0-12.303 3.573-15.871 9.874l-1.691-8.276h-11.457v62.258h13.242V73.683c0-10.156 5.353-19.185 15.025-19.185 2.254 0 4.32.377 6.105 1.223L376 44.341c-1.69-1.034-5.165-2.068-9.297-2.068Z" fill="url(#b)"/>
    <path d="M130.732 119.457c-.085-.86-.451-1.527-1.097-2.003-.646-.476-1.523-.714-2.631-.714-.753 0-1.389.107-1.907.32-.519.206-.917.493-1.194.863a2.08 2.08 0 0 0-.404 1.257c-.015.39.067.731.245 1.022.184.292.436.544.756.757.32.206.689.387 1.108.543.419.149.866.277 1.342.384l1.961.468c.951.213 1.825.498 2.62.853a7.955 7.955 0 0 1 2.067 1.31 5.462 5.462 0 0 1 1.353 1.832c.327.704.494 1.51.501 2.419-.007 1.335-.348 2.493-1.023 3.473-.668.973-1.634 1.729-2.898 2.269-1.257.533-2.773.799-4.549.799-1.761 0-3.295-.27-4.602-.81-1.3-.539-2.315-1.338-3.047-2.397-.724-1.065-1.104-2.383-1.14-3.952h4.464c.05.731.259 1.342.629 1.832.376.483.877.849 1.502 1.098.632.241 1.346.362 2.141.362.781 0 1.459-.114 2.035-.341.582-.227 1.033-.543 1.353-.948.319-.405.479-.87.479-1.396 0-.49-.145-.902-.437-1.236-.284-.334-.703-.618-1.257-.852-.547-.234-1.218-.447-2.013-.639l-2.376-.597c-1.839-.447-3.292-1.147-4.357-2.098-1.066-.952-1.595-2.234-1.588-3.846-.007-1.321.345-2.476 1.055-3.463.717-.987 1.701-1.758 2.951-2.312 1.25-.553 2.671-.83 4.262-.83 1.619 0 3.032.277 4.24.83 1.214.554 2.159 1.325 2.833 2.312.675.987 1.023 2.131 1.044 3.431h-4.421Zm6.992-2.472v-3.803h17.919v3.803h-6.68V135h-4.56v-18.015h-6.679ZM159.688 135h-4.943l7.532-21.818h5.945L175.743 135H170.8l-5.465-16.832h-.171L159.688 135Zm-.309-8.576h11.676v3.601h-11.676v-3.601Zm18.99 8.576v-21.818h8.608c1.648 0 3.054.295 4.219.884 1.172.582 2.063 1.41 2.674 2.482.618 1.066.927 2.319.927 3.761 0 1.449-.313 2.695-.938 3.739-.625 1.037-1.531 1.833-2.717 2.387-1.179.554-2.606.831-4.282.831h-5.764v-3.708h5.018c.881 0 1.612-.121 2.195-.362.582-.241 1.015-.604 1.299-1.087.292-.483.437-1.083.437-1.8 0-.724-.145-1.335-.437-1.832-.284-.498-.721-.874-1.31-1.13-.582-.262-1.318-.394-2.205-.394h-3.111V135h-4.613Zm11.783-9.929 5.422 9.929h-5.092l-5.306-9.929h4.976Zm7.073-8.086v-3.803h17.92v3.803h-6.68V135h-4.56v-18.015h-6.68ZM218.096 135v-21.818h14.701v3.803h-10.089v5.199h9.333v3.803h-9.333v5.21h10.132V135h-14.744Zm18.369 0v-21.818h8.608c1.647 0 3.054.295 4.218.884 1.172.582 2.064 1.41 2.674 2.482.618 1.066.927 2.319.927 3.761 0 1.449-.312 2.695-.937 3.739-.625 1.037-1.531 1.833-2.717 2.387-1.179.554-2.606.831-4.283.831h-5.763v-3.708h5.018c.88 0 1.612-.121 2.194-.362.583-.241 1.016-.604 1.3-1.087.291-.483.437-1.083.437-1.8 0-.724-.146-1.335-.437-1.832-.284-.498-.721-.874-1.31-1.13-.583-.262-1.318-.394-2.206-.394h-3.11V135h-4.613Zm11.782-9.929L253.67 135h-5.092l-5.306-9.929h4.975Z" fill="url(#c)"/>
  </g>
  <defs>
    <linearGradient id="b" x1="-2.454" y1="15.21" x2="327.608" y2="168.904" gradientUnits="userSpaceOnUse">
      <stop stop-color="#792300"/>
      <stop offset="1" stop-color="#F37000"/>
    </linearGradient>
    <linearGradient id="c" x1="124" y1="149.5" x2="252" y2="150" gradientUnits="userSpaceOnUse">
      <stop stop-color="#AA4201"/>
      <stop offset=".979" stop-color="#CA5601"/>
    </linearGradient>
    <clipPath id="a">
      <path fill="#fff" transform="translate(12)" d="M0 0h364v150H0z"/>
    </clipPath>
  </defs>
</svg>